<svg width="103" height="16" viewBox="0 0 103 16" fill="none" xmlns="http://www.w3.org/2000/svg">
<path d="M0.2 8.6V0.359999H3V8.6C3 9.44 3.04667 10.1133 3.14 10.62C3.23333 11.1267 3.4 11.5267 3.64 11.82C3.88 12.1 4.16667 12.2867 4.5 12.38C4.83333 12.4733 5.28 12.52 5.84 12.52C6.33333 12.52 6.74 12.4667 7.06 12.36C7.38 12.2533 7.65333 12.06 7.88 11.78C8.12 11.4867 8.29333 11.0867 8.4 10.58C8.50667 10.06 8.56 9.4 8.56 8.6V0.359999H11.38V8.6C11.38 9.30667 11.34 9.95333 11.26 10.54C11.18 11.1133 11.08 11.6133 10.96 12.04C10.84 12.4533 10.6733 12.8267 10.46 13.16C10.26 13.4933 10.06 13.7667 9.86 13.98C9.67333 14.18 9.42667 14.36 9.12 14.52C8.82667 14.6667 8.57333 14.78 8.36 14.86C8.14667 14.9267 7.86 14.98 7.5 15.02C7.15333 15.06 6.87333 15.08 6.66 15.08C6.46 15.0933 6.18667 15.1 5.84 15.1C5.8 15.1 5.73333 15.1 5.64 15.1C5.13333 15.1 4.74667 15.0933 4.48 15.08C4.22667 15.0667 3.87333 15.02 3.42 14.94C2.96667 14.86 2.61333 14.7467 2.36 14.6C2.12 14.44 1.84 14.2067 1.52 13.9C1.2 13.58 0.96 13.1933 0.8 12.74C0.64 12.2867 0.5 11.7133 0.38 11.02C0.26 10.3133 0.2 9.50667 0.2 8.6ZM14.1813 15V0.359999H20.5813C21.1813 0.359999 21.7146 0.439999 22.1813 0.599999C22.6479 0.746666 23.0613 0.993332 23.4213 1.34C23.7946 1.67333 24.0813 2.14667 24.2813 2.76C24.4813 3.36 24.5813 4.08 24.5813 4.92C24.5813 5.61333 24.5213 6.22 24.4013 6.74C24.2813 7.26 24.1479 7.66 24.0013 7.94C23.8546 8.20667 23.6546 8.44667 23.4013 8.66C23.1479 8.86 22.9546 8.98667 22.8213 9.04C22.6879 9.09333 22.4946 9.16 22.2413 9.24L25.0213 15H21.8613L19.4413 9.46L16.9813 9.18V15H14.1813ZM17.0013 6.98H20.3213C20.5879 6.98 20.8013 6.96 20.9613 6.92C21.1213 6.86667 21.2613 6.76667 21.3813 6.62C21.5146 6.47333 21.6079 6.26667 21.6613 6C21.7279 5.72 21.7613 5.36 21.7613 4.92C21.7613 4.13333 21.6413 3.59333 21.4013 3.3C21.1613 2.99333 20.8013 2.84 20.3213 2.84H17.0013V6.98ZM27.3897 15V0.359999H33.4297C34.843 0.359999 35.883 0.726666 36.5497 1.46C37.2164 2.18 37.5497 3.12 37.5497 4.28C37.5497 5.02667 37.383 5.70667 37.0497 6.32C36.7164 6.92 36.2164 7.28 35.5497 7.4C36.1897 7.52 36.723 7.88 37.1497 8.48C37.5764 9.06667 37.7897 9.80667 37.7897 10.7C37.7897 11.3933 37.703 12 37.5297 12.52C37.3697 13.04 37.1164 13.4867 36.7697 13.86C36.4364 14.2333 35.9897 14.52 35.4297 14.72C34.883 14.9067 34.2297 15 33.4697 15H27.3897ZM30.1897 12.52L33.3697 12.54C34.4497 12.54 34.9897 11.8867 34.9897 10.58C34.9897 10.1933 34.9364 9.85333 34.8297 9.56C34.7364 9.26667 34.563 9.02 34.3097 8.82C34.0564 8.62 33.743 8.52 33.3697 8.52H30.1897V12.52ZM30.1897 6.16H33.2497C33.7564 6.16 34.1364 6.02 34.3897 5.74C34.6564 5.44667 34.7897 5.03333 34.7897 4.5C34.7897 4.28667 34.7697 4.09333 34.7297 3.92C34.6897 3.73333 34.6297 3.58 34.5497 3.46C34.4697 3.34 34.383 3.24 34.2897 3.16C34.1964 3.06667 34.0897 3 33.9697 2.96C33.8497 2.92 33.7297 2.89333 33.6097 2.88C33.503 2.85333 33.383 2.84 33.2497 2.84H30.1897V6.16ZM40.34 15V0.359999H43.18L48.98 9.82V0.359999H51.78V15H48.98L43.16 5.64V15H40.34ZM54.5547 5.28V4.02C54.5547 3.46 54.6214 2.96 54.7547 2.52C54.888 2.08 55.068 1.72 55.2947 1.44C55.5214 1.16 55.8014 0.933332 56.1347 0.76C56.4814 0.573333 56.8414 0.446666 57.2147 0.38C57.6014 0.299999 58.0347 0.253332 58.5147 0.239999C59.528 0.213333 60.5747 0.26 61.6547 0.38C62.7347 0.499999 63.5747 0.646665 64.1747 0.819999V3.02C62.6547 2.88667 61.0214 2.82 59.2747 2.82C58.568 2.80667 58.068 2.88667 57.7747 3.06C57.4947 3.22 57.3547 3.61333 57.3547 4.24V4.96C57.3547 5.52 57.468 5.89333 57.6947 6.08C57.9214 6.26667 58.328 6.36 58.9147 6.36H61.2347C61.5814 6.36 61.9014 6.39333 62.1947 6.46C62.5014 6.52667 62.7614 6.62 62.9747 6.74C63.2014 6.86 63.4014 7 63.5747 7.16C63.7614 7.32 63.9147 7.5 64.0347 7.7C64.168 7.9 64.2747 8.10667 64.3547 8.32C64.448 8.52 64.5147 8.73333 64.5547 8.96C64.608 9.18667 64.6414 9.40667 64.6547 9.62C64.6814 9.82 64.6947 10.0267 64.6947 10.24V11.22C64.6947 11.86 64.6147 12.42 64.4547 12.9C64.2947 13.38 64.088 13.76 63.8347 14.04C63.5947 14.32 63.288 14.5467 62.9147 14.72C62.5547 14.8933 62.1947 15.0067 61.8347 15.06C61.4747 15.1267 61.0814 15.16 60.6547 15.16C58.2414 15.16 56.3547 14.96 54.9947 14.56V12.36C56.4614 12.5067 58.1614 12.58 60.0947 12.58C60.348 12.58 60.5614 12.5667 60.7347 12.54C60.9214 12.5133 61.108 12.46 61.2947 12.38C61.4947 12.3 61.6414 12.1733 61.7347 12C61.8414 11.8133 61.8947 11.5867 61.8947 11.32V10.54C61.8947 10.0733 61.8014 9.72667 61.6147 9.5C61.428 9.27333 61.0814 9.16 60.5747 9.16H58.3347C55.8147 9.14667 54.5547 7.85333 54.5547 5.28ZM66.8716 2.94V0.359999H77.6916V2.94H73.6316V15H70.8316V2.94H66.8716ZM80.147 12.12V3.4C80.147 2.90667 80.2137 2.47333 80.347 2.1C80.4804 1.72667 80.6537 1.43333 80.867 1.22C81.0804 1.00667 81.327 0.833333 81.607 0.699999C81.9004 0.553333 82.1804 0.46 82.447 0.419999C82.727 0.379999 83.0204 0.359999 83.327 0.359999C86.767 0.453333 88.9137 0.56 89.767 0.68V3H83.987C83.7337 3 83.5337 3.02667 83.387 3.08C83.2404 3.13333 83.1337 3.22667 83.067 3.36C83.0137 3.49333 82.9804 3.60667 82.967 3.7C82.9537 3.79333 82.947 3.93333 82.947 4.12V6.4L88.867 6.6V8.92L82.947 9.1V11.38C82.947 11.6333 82.9804 11.84 83.047 12C83.1137 12.1467 83.2204 12.2533 83.367 12.32C83.5137 12.3733 83.6337 12.4067 83.727 12.42C83.8337 12.42 83.987 12.42 84.187 12.42H89.767V14.72C89.4337 14.76 88.747 14.8133 87.707 14.88C86.667 14.9333 85.707 14.9733 84.827 15L83.527 15.06C83.2204 15.0733 82.9337 15.0667 82.667 15.04C82.4004 15.0133 82.107 14.94 81.787 14.82C81.467 14.7 81.187 14.54 80.947 14.34C80.7204 14.14 80.527 13.8533 80.367 13.48C80.2204 13.0933 80.147 12.64 80.147 12.12ZM92.2347 15V0.359999H98.5347C98.948 0.359999 99.3214 0.393332 99.6547 0.459999C100.001 0.513332 100.361 0.633332 100.735 0.819999C101.121 1.00667 101.441 1.26 101.695 1.58C101.961 1.9 102.175 2.34 102.335 2.9C102.508 3.46 102.595 4.12 102.595 4.88C102.595 5.41333 102.555 5.90667 102.475 6.36C102.408 6.81333 102.315 7.2 102.195 7.52C102.075 7.82667 101.928 8.10667 101.755 8.36C101.581 8.6 101.395 8.79333 101.195 8.94C100.995 9.07333 100.781 9.19333 100.555 9.3C100.328 9.40667 100.101 9.48 99.8747 9.52C99.648 9.54667 99.4214 9.57333 99.1947 9.6C98.968 9.61333 98.748 9.61333 98.5347 9.6C98.148 9.57333 97.4814 9.50667 96.5347 9.4C95.588 9.29333 95.088 9.22667 95.0347 9.2V15H92.2347ZM95.0347 7.12H98.3147C98.7947 7.12 99.1547 6.96 99.3947 6.64C99.648 6.32 99.7747 5.74 99.7747 4.9C99.7614 3.52667 99.2747 2.84 98.3147 2.84H95.0347V7.12Z" fill="#212529"/>
</svg>
